<svg xmlns="http://www.w3.org/2000/svg" xmlns:xlink="http://www.w3.org/1999/xlink" width="368" zoomAndPan="magnify" viewBox="0 0 276 87.749997" height="117" preserveAspectRatio="xMidYMid meet" version="1.0"><defs><g/></defs><g fill="#28ae00" fill-opacity="1"><g transform="translate(3.383528, 23.040421)"><g><path d="M 6.796875 -10.90625 C 5.796875 -10.90625 5.003906 -10.515625 4.421875 -9.734375 C 3.835938 -8.960938 3.546875 -7.859375 3.546875 -6.421875 C 3.546875 -5.066406 3.820312 -3.988281 4.375 -3.1875 C 4.925781 -2.394531 5.710938 -2 6.734375 -2 C 7.492188 -2 8.117188 -2.203125 8.609375 -2.609375 C 9.097656 -3.023438 9.425781 -3.628906 9.59375 -4.421875 L 12.296875 -4.421875 C 11.992188 -2.890625 11.351562 -1.710938 10.375 -0.890625 C 9.394531 -0.0664062 8.164062 0.34375 6.6875 0.34375 C 5.488281 0.34375 4.445312 0.0703125 3.5625 -0.46875 C 2.675781 -1.019531 1.992188 -1.800781 1.515625 -2.8125 C 1.035156 -3.832031 0.796875 -5.039062 0.796875 -6.4375 C 0.796875 -7.820312 1.039062 -9.023438 1.53125 -10.046875 C 2.03125 -11.078125 2.726562 -11.867188 3.625 -12.421875 C 4.53125 -12.972656 5.566406 -13.25 6.734375 -13.25 C 7.753906 -13.25 8.671875 -13.050781 9.484375 -12.65625 C 10.296875 -12.257812 10.945312 -11.710938 11.4375 -11.015625 C 11.925781 -10.328125 12.210938 -9.546875 12.296875 -8.671875 L 9.59375 -8.671875 C 9.25 -10.160156 8.316406 -10.90625 6.796875 -10.90625 Z M 6.796875 -10.90625 "/></g></g></g><g fill="#28ae00" fill-opacity="1"><g transform="translate(16.353204, 23.040421)"><g><path d="M 5.171875 -1.765625 C 5.546875 -1.765625 5.882812 -1.851562 6.1875 -2.03125 C 6.488281 -2.207031 6.691406 -2.460938 6.796875 -2.796875 L 9.375 -2.796875 C 9.101562 -1.828125 8.59375 -1.078125 7.84375 -0.546875 C 7.101562 -0.015625 6.210938 0.25 5.171875 0.25 C 3.585938 0.25 2.394531 -0.1875 1.59375 -1.0625 C 0.800781 -1.9375 0.40625 -3.234375 0.40625 -4.953125 C 0.40625 -5.898438 0.582031 -6.738281 0.9375 -7.46875 C 1.289062 -8.207031 1.804688 -8.78125 2.484375 -9.1875 C 3.171875 -9.601562 4.003906 -9.8125 4.984375 -9.8125 C 6.347656 -9.8125 7.4375 -9.375 8.25 -8.5 C 9.070312 -7.625 9.484375 -6.300781 9.484375 -4.53125 L 9.484375 -4.09375 L 2.921875 -4.09375 C 3.003906 -2.539062 3.753906 -1.765625 5.171875 -1.765625 Z M 4.9375 -7.75 C 3.789062 -7.75 3.144531 -7.078125 3 -5.734375 L 6.90625 -5.734375 C 6.84375 -6.359375 6.632812 -6.847656 6.28125 -7.203125 C 5.9375 -7.566406 5.488281 -7.75 4.9375 -7.75 Z M 4.9375 -7.75 "/></g></g></g><g fill="#28ae00" fill-opacity="1"><g transform="translate(26.340925, 23.040421)"><g><path d="M 9.8125 -6.6875 L 9.8125 0 L 7.296875 0 L 7.296875 -6.0625 C 7.296875 -6.582031 7.15625 -6.984375 6.875 -7.265625 C 6.59375 -7.546875 6.1875 -7.6875 5.65625 -7.6875 C 5.070312 -7.6875 4.597656 -7.492188 4.234375 -7.109375 C 3.867188 -6.734375 3.6875 -6.210938 3.6875 -5.546875 L 3.6875 0 L 1.171875 0 L 1.171875 -9.5625 L 3.578125 -9.5625 L 3.578125 -8.15625 L 3.609375 -8.15625 C 3.910156 -8.71875 4.304688 -9.132812 4.796875 -9.40625 C 5.285156 -9.675781 5.847656 -9.8125 6.484375 -9.8125 C 7.140625 -9.8125 7.71875 -9.675781 8.21875 -9.40625 C 8.726562 -9.132812 9.117188 -8.757812 9.390625 -8.28125 C 9.671875 -7.8125 9.8125 -7.28125 9.8125 -6.6875 Z M 9.8125 -6.6875 "/></g></g></g><g fill="#28ae00" fill-opacity="1"><g transform="translate(37.316644, 23.040421)"><g><path d="M 5.546875 -9.5625 L 5.546875 -7.765625 L 3.984375 -7.765625 L 3.984375 -2.421875 C 3.984375 -2.171875 4.050781 -2.003906 4.1875 -1.921875 C 4.332031 -1.835938 4.609375 -1.796875 5.015625 -1.796875 C 5.109375 -1.796875 5.285156 -1.804688 5.546875 -1.828125 L 5.546875 0.078125 C 4.878906 0.0976562 4.429688 0.109375 4.203125 0.109375 C 3.429688 0.109375 2.847656 0.03125 2.453125 -0.125 C 2.066406 -0.289062 1.804688 -0.519531 1.671875 -0.8125 C 1.535156 -1.101562 1.46875 -1.488281 1.46875 -1.96875 L 1.46875 -7.765625 L 0.171875 -7.765625 L 0.171875 -9.5625 L 1.46875 -9.5625 L 1.46875 -12.140625 L 3.984375 -12.140625 L 3.984375 -9.5625 Z M 5.546875 -9.5625 "/></g></g></g><g fill="#28ae00" fill-opacity="1"><g transform="translate(43.298497, 23.040421)"><g><path d="M 6.703125 -9.78125 L 6.703125 -7.21875 C 6.515625 -7.25 6.285156 -7.265625 6.015625 -7.265625 C 4.453125 -7.265625 3.671875 -6.519531 3.671875 -5.03125 L 3.671875 0 L 1.15625 0 L 1.15625 -9.5625 L 3.5625 -9.5625 L 3.5625 -7.90625 L 3.59375 -7.90625 C 3.945312 -8.613281 4.328125 -9.109375 4.734375 -9.390625 C 5.148438 -9.671875 5.644531 -9.8125 6.21875 -9.8125 C 6.28125 -9.8125 6.441406 -9.800781 6.703125 -9.78125 Z M 6.703125 -9.78125 "/></g></g></g><g fill="#28ae00" fill-opacity="1"><g transform="translate(50.286311, 23.040421)"><g><path d="M 10.390625 -4.78125 C 10.390625 -3.75 10.179688 -2.851562 9.765625 -2.09375 C 9.359375 -1.34375 8.785156 -0.765625 8.046875 -0.359375 C 7.304688 0.046875 6.457031 0.25 5.5 0.25 C 4.539062 0.25 3.6875 0.046875 2.9375 -0.359375 C 2.195312 -0.765625 1.625 -1.34375 1.21875 -2.09375 C 0.8125 -2.851562 0.609375 -3.75 0.609375 -4.78125 C 0.609375 -5.8125 0.8125 -6.707031 1.21875 -7.46875 C 1.632812 -8.226562 2.210938 -8.804688 2.953125 -9.203125 C 3.703125 -9.609375 4.550781 -9.8125 5.5 -9.8125 C 6.457031 -9.8125 7.304688 -9.609375 8.046875 -9.203125 C 8.785156 -8.796875 9.359375 -8.210938 9.765625 -7.453125 C 10.179688 -6.703125 10.390625 -5.8125 10.390625 -4.78125 Z M 5.5 -1.875 C 6.257812 -1.875 6.832031 -2.125 7.21875 -2.625 C 7.601562 -3.132812 7.796875 -3.851562 7.796875 -4.78125 C 7.796875 -5.695312 7.597656 -6.410156 7.203125 -6.921875 C 6.816406 -7.429688 6.242188 -7.6875 5.484375 -7.6875 C 4.753906 -7.6875 4.191406 -7.4375 3.796875 -6.9375 C 3.398438 -6.4375 3.203125 -5.71875 3.203125 -4.78125 C 3.203125 -3.832031 3.394531 -3.109375 3.78125 -2.609375 C 4.164062 -2.117188 4.738281 -1.875 5.5 -1.875 Z M 5.5 -1.875 "/></g></g></g><g fill="#28ae00" fill-opacity="1"><g transform="translate(61.26203, 23.040421)"><g/></g></g><g fill="#28ae00" fill-opacity="1"><g transform="translate(66.255895, 23.040421)"><g><path d="M 7.4375 0 L 7.4375 -1.203125 L 7.40625 -1.203125 C 7.101562 -0.703125 6.707031 -0.332031 6.21875 -0.09375 C 5.738281 0.132812 5.210938 0.25 4.640625 0.25 C 3.804688 0.25 3.085938 0.0351562 2.484375 -0.390625 C 1.878906 -0.828125 1.414062 -1.429688 1.09375 -2.203125 C 0.769531 -2.972656 0.609375 -3.867188 0.609375 -4.890625 C 0.609375 -5.878906 0.773438 -6.742188 1.109375 -7.484375 C 1.441406 -8.234375 1.910156 -8.804688 2.515625 -9.203125 C 3.128906 -9.609375 3.816406 -9.8125 4.578125 -9.8125 C 5.191406 -9.8125 5.734375 -9.679688 6.203125 -9.421875 C 6.671875 -9.160156 7.050781 -8.789062 7.34375 -8.3125 L 7.390625 -8.3125 L 7.390625 -12.90625 L 9.90625 -12.90625 L 9.90625 0 Z M 7.5 -4.5625 C 7.5 -5.539062 7.3125 -6.296875 6.9375 -6.828125 C 6.570312 -7.367188 6.03125 -7.640625 5.3125 -7.640625 C 4.644531 -7.640625 4.125 -7.382812 3.75 -6.875 C 3.382812 -6.363281 3.203125 -5.644531 3.203125 -4.71875 C 3.203125 -3.875 3.382812 -3.175781 3.75 -2.625 C 4.125 -2.082031 4.628906 -1.8125 5.265625 -1.8125 C 5.941406 -1.8125 6.484375 -2.0625 6.890625 -2.5625 C 7.296875 -3.0625 7.5 -3.726562 7.5 -4.5625 Z M 7.5 -4.5625 "/></g></g></g><g fill="#28ae00" fill-opacity="1"><g transform="translate(77.231614, 23.040421)"><g><path d="M 5.171875 -1.765625 C 5.546875 -1.765625 5.882812 -1.851562 6.1875 -2.03125 C 6.488281 -2.207031 6.691406 -2.460938 6.796875 -2.796875 L 9.375 -2.796875 C 9.101562 -1.828125 8.59375 -1.078125 7.84375 -0.546875 C 7.101562 -0.015625 6.210938 0.25 5.171875 0.25 C 3.585938 0.25 2.394531 -0.1875 1.59375 -1.0625 C 0.800781 -1.9375 0.40625 -3.234375 0.40625 -4.953125 C 0.40625 -5.898438 0.582031 -6.738281 0.9375 -7.46875 C 1.289062 -8.207031 1.804688 -8.78125 2.484375 -9.1875 C 3.171875 -9.601562 4.003906 -9.8125 4.984375 -9.8125 C 6.347656 -9.8125 7.4375 -9.375 8.25 -8.5 C 9.070312 -7.625 9.484375 -6.300781 9.484375 -4.53125 L 9.484375 -4.09375 L 2.921875 -4.09375 C 3.003906 -2.539062 3.753906 -1.765625 5.171875 -1.765625 Z M 4.9375 -7.75 C 3.789062 -7.75 3.144531 -7.078125 3 -5.734375 L 6.90625 -5.734375 C 6.84375 -6.359375 6.632812 -6.847656 6.28125 -7.203125 C 5.9375 -7.566406 5.488281 -7.75 4.9375 -7.75 Z M 4.9375 -7.75 "/></g></g></g><g fill="#28ae00" fill-opacity="1"><g transform="translate(87.219335, 23.040421)"><g/></g></g><g fill="#28ae00" fill-opacity="1"><g transform="translate(92.213201, 23.040421)"><g><path d="M 12.3125 -6.75 C 12.3125 -5.351562 12.085938 -4.144531 11.640625 -3.125 C 11.203125 -2.101562 10.582031 -1.328125 9.78125 -0.796875 C 8.988281 -0.265625 8.078125 0 7.046875 0 L 1.359375 0 L 1.359375 -12.90625 L 7.15625 -12.90625 C 8.289062 -12.90625 9.242188 -12.632812 10.015625 -12.09375 C 10.785156 -11.5625 11.359375 -10.832031 11.734375 -9.90625 C 12.117188 -8.988281 12.3125 -7.9375 12.3125 -6.75 Z M 9.5625 -6.578125 C 9.5625 -9.304688 8.609375 -10.671875 6.703125 -10.671875 L 4 -10.671875 L 4 -2.234375 L 6.6875 -2.234375 C 7.570312 -2.234375 8.269531 -2.617188 8.78125 -3.390625 C 9.300781 -4.171875 9.5625 -5.234375 9.5625 -6.578125 Z M 9.5625 -6.578125 "/></g></g></g><g fill="#28ae00" fill-opacity="1"><g transform="translate(105.182877, 23.040421)"><g><path d="M 1.234375 -10.6875 L 1.234375 -13.03125 L 3.75 -13.03125 L 3.75 -10.6875 Z M 1.234375 0 L 1.234375 -9.5625 L 3.75 -9.5625 L 3.75 0 Z M 1.234375 0 "/></g></g></g><g fill="#28ae00" fill-opacity="1"><g transform="translate(110.176742, 23.040421)"><g><path d="M 9.03125 -6.640625 L 6.578125 -6.640625 C 6.503906 -7.109375 6.332031 -7.4375 6.0625 -7.625 C 5.789062 -7.8125 5.394531 -7.90625 4.875 -7.90625 C 4.363281 -7.90625 3.976562 -7.832031 3.71875 -7.6875 C 3.46875 -7.539062 3.34375 -7.300781 3.34375 -6.96875 C 3.34375 -6.707031 3.53125 -6.5 3.90625 -6.34375 C 4.289062 -6.1875 4.910156 -6.03125 5.765625 -5.875 C 7.085938 -5.625 8.007812 -5.269531 8.53125 -4.8125 C 9.0625 -4.351562 9.328125 -3.765625 9.328125 -3.046875 C 9.328125 -1.941406 8.929688 -1.113281 8.140625 -0.5625 C 7.359375 -0.0195312 6.335938 0.25 5.078125 0.25 C 3.679688 0.25 2.570312 -0.046875 1.75 -0.640625 C 0.9375 -1.234375 0.53125 -2.035156 0.53125 -3.046875 L 3.125 -3.046875 C 3.125 -2.117188 3.8125 -1.65625 5.1875 -1.65625 C 5.675781 -1.65625 6.066406 -1.742188 6.359375 -1.921875 C 6.660156 -2.109375 6.8125 -2.347656 6.8125 -2.640625 C 6.8125 -2.929688 6.617188 -3.15625 6.234375 -3.3125 C 5.859375 -3.46875 5.1875 -3.632812 4.21875 -3.8125 C 3.09375 -4.007812 2.253906 -4.332031 1.703125 -4.78125 C 1.148438 -5.238281 0.875 -5.847656 0.875 -6.609375 C 0.875 -7.566406 1.210938 -8.335938 1.890625 -8.921875 C 2.578125 -9.515625 3.53125 -9.8125 4.75 -9.8125 C 6.144531 -9.8125 7.191406 -9.535156 7.890625 -8.984375 C 8.597656 -8.429688 8.976562 -7.648438 9.03125 -6.640625 Z M 9.03125 -6.640625 "/></g></g></g><g fill="#28ae00" fill-opacity="1"><g transform="translate(120.164464, 23.040421)"><g><path d="M 5.171875 -1.765625 C 5.546875 -1.765625 5.882812 -1.851562 6.1875 -2.03125 C 6.488281 -2.207031 6.691406 -2.460938 6.796875 -2.796875 L 9.375 -2.796875 C 9.101562 -1.828125 8.59375 -1.078125 7.84375 -0.546875 C 7.101562 -0.015625 6.210938 0.25 5.171875 0.25 C 3.585938 0.25 2.394531 -0.1875 1.59375 -1.0625 C 0.800781 -1.9375 0.40625 -3.234375 0.40625 -4.953125 C 0.40625 -5.898438 0.582031 -6.738281 0.9375 -7.46875 C 1.289062 -8.207031 1.804688 -8.78125 2.484375 -9.1875 C 3.171875 -9.601562 4.003906 -9.8125 4.984375 -9.8125 C 6.347656 -9.8125 7.4375 -9.375 8.25 -8.5 C 9.070312 -7.625 9.484375 -6.300781 9.484375 -4.53125 L 9.484375 -4.09375 L 2.921875 -4.09375 C 3.003906 -2.539062 3.753906 -1.765625 5.171875 -1.765625 Z M 4.9375 -7.75 C 3.789062 -7.75 3.144531 -7.078125 3 -5.734375 L 6.90625 -5.734375 C 6.84375 -6.359375 6.632812 -6.847656 6.28125 -7.203125 C 5.9375 -7.566406 5.488281 -7.75 4.9375 -7.75 Z M 4.9375 -7.75 "/></g></g></g><g fill="#28ae00" fill-opacity="1"><g transform="translate(130.152185, 23.040421)"><g><path d="M 9.8125 -6.6875 L 9.8125 0 L 7.296875 0 L 7.296875 -6.0625 C 7.296875 -6.582031 7.15625 -6.984375 6.875 -7.265625 C 6.59375 -7.546875 6.1875 -7.6875 5.65625 -7.6875 C 5.070312 -7.6875 4.597656 -7.492188 4.234375 -7.109375 C 3.867188 -6.734375 3.6875 -6.210938 3.6875 -5.546875 L 3.6875 0 L 1.171875 0 L 1.171875 -9.5625 L 3.578125 -9.5625 L 3.578125 -8.15625 L 3.609375 -8.15625 C 3.910156 -8.71875 4.304688 -9.132812 4.796875 -9.40625 C 5.285156 -9.675781 5.847656 -9.8125 6.484375 -9.8125 C 7.140625 -9.8125 7.71875 -9.675781 8.21875 -9.40625 C 8.726562 -9.132812 9.117188 -8.757812 9.390625 -8.28125 C 9.671875 -7.8125 9.8125 -7.28125 9.8125 -6.6875 Z M 6.828125 -11.09375 C 6.609375 -11.09375 6.332031 -11.132812 6 -11.21875 C 5.664062 -11.300781 5.328125 -11.410156 4.984375 -11.546875 C 4.660156 -11.671875 4.394531 -11.734375 4.1875 -11.734375 C 3.96875 -11.734375 3.789062 -11.671875 3.65625 -11.546875 C 3.519531 -11.429688 3.414062 -11.234375 3.34375 -10.953125 L 2.1875 -10.953125 C 2.3125 -11.660156 2.554688 -12.207031 2.921875 -12.59375 C 3.296875 -12.976562 3.78125 -13.171875 4.375 -13.171875 C 4.5625 -13.171875 4.753906 -13.140625 4.953125 -13.078125 C 5.160156 -13.015625 5.492188 -12.894531 5.953125 -12.71875 C 6.304688 -12.59375 6.582031 -12.53125 6.78125 -12.53125 C 7.03125 -12.53125 7.21875 -12.582031 7.34375 -12.6875 C 7.46875 -12.800781 7.5625 -12.988281 7.625 -13.25 L 8.78125 -13.25 C 8.664062 -12.550781 8.4375 -12.015625 8.09375 -11.640625 C 7.75 -11.273438 7.328125 -11.09375 6.828125 -11.09375 Z M 6.828125 -11.09375 "/></g></g></g><g fill="#28ae00" fill-opacity="1"><g transform="translate(141.127904, 23.040421)"><g><path d="M 10.390625 -4.78125 C 10.390625 -3.75 10.179688 -2.851562 9.765625 -2.09375 C 9.359375 -1.34375 8.785156 -0.765625 8.046875 -0.359375 C 7.304688 0.046875 6.457031 0.25 5.5 0.25 C 4.539062 0.25 3.6875 0.046875 2.9375 -0.359375 C 2.195312 -0.765625 1.625 -1.34375 1.21875 -2.09375 C 0.8125 -2.851562 0.609375 -3.75 0.609375 -4.78125 C 0.609375 -5.8125 0.8125 -6.707031 1.21875 -7.46875 C 1.632812 -8.226562 2.210938 -8.804688 2.953125 -9.203125 C 3.703125 -9.609375 4.550781 -9.8125 5.5 -9.8125 C 6.457031 -9.8125 7.304688 -9.609375 8.046875 -9.203125 C 8.785156 -8.796875 9.359375 -8.210938 9.765625 -7.453125 C 10.179688 -6.703125 10.390625 -5.8125 10.390625 -4.78125 Z M 5.5 -1.875 C 6.257812 -1.875 6.832031 -2.125 7.21875 -2.625 C 7.601562 -3.132812 7.796875 -3.851562 7.796875 -4.78125 C 7.796875 -5.695312 7.597656 -6.410156 7.203125 -6.921875 C 6.816406 -7.429688 6.242188 -7.6875 5.484375 -7.6875 C 4.753906 -7.6875 4.191406 -7.4375 3.796875 -6.9375 C 3.398438 -6.4375 3.203125 -5.71875 3.203125 -4.78125 C 3.203125 -3.832031 3.394531 -3.109375 3.78125 -2.609375 C 4.164062 -2.117188 4.738281 -1.875 5.5 -1.875 Z M 5.5 -1.875 "/></g></g></g><g fill="#28ae00" fill-opacity="1"><g transform="translate(152.103614, 23.040421)"><g/></g></g><g fill="#28ae00" fill-opacity="1"><g transform="translate(157.097488, 23.040421)"><g><path d="M 5.171875 -1.765625 C 5.546875 -1.765625 5.882812 -1.851562 6.1875 -2.03125 C 6.488281 -2.207031 6.691406 -2.460938 6.796875 -2.796875 L 9.375 -2.796875 C 9.101562 -1.828125 8.59375 -1.078125 7.84375 -0.546875 C 7.101562 -0.015625 6.210938 0.25 5.171875 0.25 C 3.585938 0.25 2.394531 -0.1875 1.59375 -1.0625 C 0.800781 -1.9375 0.40625 -3.234375 0.40625 -4.953125 C 0.40625 -5.898438 0.582031 -6.738281 0.9375 -7.46875 C 1.289062 -8.207031 1.804688 -8.78125 2.484375 -9.1875 C 3.171875 -9.601562 4.003906 -9.8125 4.984375 -9.8125 C 6.347656 -9.8125 7.4375 -9.375 8.25 -8.5 C 9.070312 -7.625 9.484375 -6.300781 9.484375 -4.53125 L 9.484375 -4.09375 L 2.921875 -4.09375 C 3.003906 -2.539062 3.753906 -1.765625 5.171875 -1.765625 Z M 4.9375 -7.75 C 3.789062 -7.75 3.144531 -7.078125 3 -5.734375 L 6.90625 -5.734375 C 6.84375 -6.359375 6.632812 -6.847656 6.28125 -7.203125 C 5.9375 -7.566406 5.488281 -7.75 4.9375 -7.75 Z M 4.9375 -7.75 "/></g></g></g><g fill="#28ae00" fill-opacity="1"><g transform="translate(167.085201, 23.040421)"><g/></g></g><g fill="#28ae00" fill-opacity="1"><g transform="translate(172.079075, 23.040421)"><g><path d="M 1.15625 0 L 1.15625 -12.90625 L 3.84375 -12.90625 L 3.84375 0 Z M 1.15625 0 "/></g></g></g><g fill="#28ae00" fill-opacity="1"><g transform="translate(177.07295, 23.040421)"><g><path d="M 9.8125 -6.6875 L 9.8125 0 L 7.296875 0 L 7.296875 -6.0625 C 7.296875 -6.582031 7.15625 -6.984375 6.875 -7.265625 C 6.59375 -7.546875 6.1875 -7.6875 5.65625 -7.6875 C 5.070312 -7.6875 4.597656 -7.492188 4.234375 -7.109375 C 3.867188 -6.734375 3.6875 -6.210938 3.6875 -5.546875 L 3.6875 0 L 1.171875 0 L 1.171875 -9.5625 L 3.578125 -9.5625 L 3.578125 -8.15625 L 3.609375 -8.15625 C 3.910156 -8.71875 4.304688 -9.132812 4.796875 -9.40625 C 5.285156 -9.675781 5.847656 -9.8125 6.484375 -9.8125 C 7.140625 -9.8125 7.71875 -9.675781 8.21875 -9.40625 C 8.726562 -9.132812 9.117188 -8.757812 9.390625 -8.28125 C 9.671875 -7.8125 9.8125 -7.28125 9.8125 -6.6875 Z M 9.8125 -6.6875 "/></g></g></g><g fill="#28ae00" fill-opacity="1"><g transform="translate(188.048668, 23.040421)"><g><path d="M 9.8125 -6.6875 L 9.8125 0 L 7.296875 0 L 7.296875 -6.0625 C 7.296875 -6.582031 7.15625 -6.984375 6.875 -7.265625 C 6.59375 -7.546875 6.1875 -7.6875 5.65625 -7.6875 C 5.070312 -7.6875 4.597656 -7.492188 4.234375 -7.109375 C 3.867188 -6.734375 3.6875 -6.210938 3.6875 -5.546875 L 3.6875 0 L 1.171875 0 L 1.171875 -9.5625 L 3.578125 -9.5625 L 3.578125 -8.15625 L 3.609375 -8.15625 C 3.910156 -8.71875 4.304688 -9.132812 4.796875 -9.40625 C 5.285156 -9.675781 5.847656 -9.8125 6.484375 -9.8125 C 7.140625 -9.8125 7.71875 -9.675781 8.21875 -9.40625 C 8.726562 -9.132812 9.117188 -8.757812 9.390625 -8.28125 C 9.671875 -7.8125 9.8125 -7.28125 9.8125 -6.6875 Z M 9.8125 -6.6875 "/></g></g></g><g fill="#28ae00" fill-opacity="1"><g transform="translate(199.024387, 23.040421)"><g><path d="M 10.390625 -4.78125 C 10.390625 -3.75 10.179688 -2.851562 9.765625 -2.09375 C 9.359375 -1.34375 8.785156 -0.765625 8.046875 -0.359375 C 7.304688 0.046875 6.457031 0.25 5.5 0.25 C 4.539062 0.25 3.6875 0.046875 2.9375 -0.359375 C 2.195312 -0.765625 1.625 -1.34375 1.21875 -2.09375 C 0.8125 -2.851562 0.609375 -3.75 0.609375 -4.78125 C 0.609375 -5.8125 0.8125 -6.707031 1.21875 -7.46875 C 1.632812 -8.226562 2.210938 -8.804688 2.953125 -9.203125 C 3.703125 -9.609375 4.550781 -9.8125 5.5 -9.8125 C 6.457031 -9.8125 7.304688 -9.609375 8.046875 -9.203125 C 8.785156 -8.796875 9.359375 -8.210938 9.765625 -7.453125 C 10.179688 -6.703125 10.390625 -5.8125 10.390625 -4.78125 Z M 5.5 -1.875 C 6.257812 -1.875 6.832031 -2.125 7.21875 -2.625 C 7.601562 -3.132812 7.796875 -3.851562 7.796875 -4.78125 C 7.796875 -5.695312 7.597656 -6.410156 7.203125 -6.921875 C 6.816406 -7.429688 6.242188 -7.6875 5.484375 -7.6875 C 4.753906 -7.6875 4.191406 -7.4375 3.796875 -6.9375 C 3.398438 -6.4375 3.203125 -5.71875 3.203125 -4.78125 C 3.203125 -3.832031 3.394531 -3.109375 3.78125 -2.609375 C 4.164062 -2.117188 4.738281 -1.875 5.5 -1.875 Z M 5.5 -1.875 "/></g></g></g><g fill="#28ae00" fill-opacity="1"><g transform="translate(210.000106, 23.040421)"><g><path d="M 5.046875 -2.515625 L 7.078125 -9.5625 L 9.75 -9.5625 L 6.3125 0 L 3.671875 0 L 0.234375 -9.5625 L 3.03125 -9.5625 L 5.015625 -2.515625 Z M 5.046875 -2.515625 "/></g></g></g><g fill="#28ae00" fill-opacity="1"><g transform="translate(219.987837, 23.040421)"><g><path d="M 9.46875 -0.375 L 9.46875 0 L 6.75 0 C 6.613281 -0.414062 6.535156 -0.789062 6.515625 -1.125 C 6.066406 -0.632812 5.59375 -0.28125 5.09375 -0.0625 C 4.601562 0.144531 4.050781 0.25 3.4375 0.25 C 2.5625 0.25 1.851562 0 1.3125 -0.5 C 0.78125 -1 0.515625 -1.675781 0.515625 -2.53125 C 0.515625 -3.332031 0.734375 -4 1.171875 -4.53125 C 1.609375 -5.070312 2.390625 -5.4375 3.515625 -5.625 L 5.3125 -5.890625 C 5.769531 -5.960938 6.070312 -6.050781 6.21875 -6.15625 C 6.375 -6.269531 6.453125 -6.453125 6.453125 -6.703125 C 6.453125 -7.054688 6.320312 -7.328125 6.0625 -7.515625 C 5.800781 -7.703125 5.378906 -7.796875 4.796875 -7.796875 C 3.847656 -7.796875 3.332031 -7.351562 3.25 -6.46875 L 0.828125 -6.46875 C 0.921875 -7.5625 1.285156 -8.390625 1.921875 -8.953125 C 2.566406 -9.523438 3.601562 -9.8125 5.03125 -9.8125 C 6.25 -9.8125 7.195312 -9.570312 7.875 -9.09375 C 8.5625 -8.613281 8.90625 -7.953125 8.90625 -7.109375 L 8.90625 -1.78125 C 8.90625 -1.332031 8.953125 -1.003906 9.046875 -0.796875 C 9.140625 -0.585938 9.28125 -0.445312 9.46875 -0.375 Z M 6.453125 -3.46875 L 6.453125 -4.65625 C 6.234375 -4.519531 6 -4.410156 5.75 -4.328125 C 5.5 -4.253906 5.132812 -4.179688 4.65625 -4.109375 C 4.113281 -4.035156 3.707031 -3.890625 3.4375 -3.671875 C 3.164062 -3.453125 3.03125 -3.125 3.03125 -2.6875 C 3.03125 -2.34375 3.140625 -2.066406 3.359375 -1.859375 C 3.578125 -1.648438 3.859375 -1.546875 4.203125 -1.546875 C 4.578125 -1.546875 4.9375 -1.625 5.28125 -1.78125 C 5.625 -1.945312 5.90625 -2.175781 6.125 -2.46875 C 6.34375 -2.757812 6.453125 -3.09375 6.453125 -3.46875 Z M 6.453125 -3.46875 "/></g></g></g><g fill="#28ae00" fill-opacity="1"><g transform="translate(229.97555, 23.040421)"><g><path d="M 5.25 -7.6875 C 4.570312 -7.6875 4.0625 -7.4375 3.71875 -6.9375 C 3.375 -6.4375 3.203125 -5.71875 3.203125 -4.78125 C 3.203125 -3.6875 3.375 -2.914062 3.71875 -2.46875 C 4.0625 -2.03125 4.535156 -1.8125 5.140625 -1.8125 C 5.609375 -1.8125 6 -1.96875 6.3125 -2.28125 C 6.625 -2.601562 6.800781 -3.003906 6.84375 -3.484375 L 9.390625 -3.484375 C 9.234375 -2.378906 8.785156 -1.476562 8.046875 -0.78125 C 7.304688 -0.09375 6.300781 0.25 5.03125 0.25 C 3.59375 0.25 2.492188 -0.175781 1.734375 -1.03125 C 0.984375 -1.882812 0.609375 -3.046875 0.609375 -4.515625 C 0.609375 -6.222656 1.003906 -7.53125 1.796875 -8.4375 C 2.585938 -9.351562 3.71875 -9.8125 5.1875 -9.8125 C 5.957031 -9.8125 6.65625 -9.664062 7.28125 -9.375 C 7.90625 -9.09375 8.40625 -8.671875 8.78125 -8.109375 C 9.15625 -7.554688 9.367188 -6.898438 9.421875 -6.140625 L 6.859375 -6.140625 C 6.785156 -6.609375 6.613281 -6.984375 6.34375 -7.265625 C 6.082031 -7.546875 5.71875 -7.6875 5.25 -7.6875 Z M 5.25 -7.6875 "/></g></g></g><g fill="#28ae00" fill-opacity="1"><g transform="translate(239.963263, 23.040421)"><g><path d="M 1.234375 -10.6875 L 1.234375 -13.03125 L 3.75 -13.03125 L 3.75 -10.6875 Z M 1.234375 0 L 1.234375 -9.5625 L 3.75 -9.5625 L 3.75 0 Z M 1.234375 0 "/></g></g></g><g fill="#28ae00" fill-opacity="1"><g transform="translate(244.957137, 23.040421)"><g><path d="M 10.390625 -4.78125 C 10.390625 -3.75 10.179688 -2.851562 9.765625 -2.09375 C 9.359375 -1.34375 8.785156 -0.765625 8.046875 -0.359375 C 7.304688 0.046875 6.457031 0.25 5.5 0.25 C 4.539062 0.25 3.6875 0.046875 2.9375 -0.359375 C 2.195312 -0.765625 1.625 -1.34375 1.21875 -2.09375 C 0.8125 -2.851562 0.609375 -3.75 0.609375 -4.78125 C 0.609375 -5.8125 0.8125 -6.707031 1.21875 -7.46875 C 1.632812 -8.226562 2.210938 -8.804688 2.953125 -9.203125 C 3.703125 -9.609375 4.550781 -9.8125 5.5 -9.8125 C 6.457031 -9.8125 7.304688 -9.609375 8.046875 -9.203125 C 8.785156 -8.796875 9.359375 -8.210938 9.765625 -7.453125 C 10.179688 -6.703125 10.390625 -5.8125 10.390625 -4.78125 Z M 5.5 -1.875 C 6.257812 -1.875 6.832031 -2.125 7.21875 -2.625 C 7.601562 -3.132812 7.796875 -3.851562 7.796875 -4.78125 C 7.796875 -5.695312 7.597656 -6.410156 7.203125 -6.921875 C 6.816406 -7.429688 6.242188 -7.6875 5.484375 -7.6875 C 4.753906 -7.6875 4.191406 -7.4375 3.796875 -6.9375 C 3.398438 -6.4375 3.203125 -5.71875 3.203125 -4.78125 C 3.203125 -3.832031 3.394531 -3.109375 3.78125 -2.609375 C 4.164062 -2.117188 4.738281 -1.875 5.5 -1.875 Z M 4.4375 -10.859375 L 6.125 -13.46875 L 8.890625 -13.46875 L 6.25 -10.859375 Z M 4.4375 -10.859375 "/></g></g></g><g fill="#28ae00" fill-opacity="1"><g transform="translate(255.932856, 23.040421)"><g><path d="M 9.8125 -6.6875 L 9.8125 0 L 7.296875 0 L 7.296875 -6.0625 C 7.296875 -6.582031 7.15625 -6.984375 6.875 -7.265625 C 6.59375 -7.546875 6.1875 -7.6875 5.65625 -7.6875 C 5.070312 -7.6875 4.597656 -7.492188 4.234375 -7.109375 C 3.867188 -6.734375 3.6875 -6.210938 3.6875 -5.546875 L 3.6875 0 L 1.171875 0 L 1.171875 -9.5625 L 3.578125 -9.5625 L 3.578125 -8.15625 L 3.609375 -8.15625 C 3.910156 -8.71875 4.304688 -9.132812 4.796875 -9.40625 C 5.285156 -9.675781 5.847656 -9.8125 6.484375 -9.8125 C 7.140625 -9.8125 7.71875 -9.675781 8.21875 -9.40625 C 8.726562 -9.132812 9.117188 -8.757812 9.390625 -8.28125 C 9.671875 -7.8125 9.8125 -7.28125 9.8125 -6.6875 Z M 9.8125 -6.6875 "/></g></g></g><g fill="#28ae00" fill-opacity="1"><g transform="translate(3.383528, 47.745804)"><g><path d="M 6.84375 -10.625 L 6.84375 0 L 4.15625 0 L 4.15625 -10.625 L 0.25 -10.625 L 0.25 -12.90625 L 10.75 -12.90625 L 10.75 -10.625 Z M 6.84375 -10.625 "/></g></g></g><g fill="#28ae00" fill-opacity="1"><g transform="translate(14.359246, 47.745804)"><g><path d="M 4 -10.625 L 4 -7.90625 L 10.296875 -7.90625 L 10.296875 -5.625 L 4 -5.625 L 4 -2.28125 L 11.15625 -2.28125 L 11.15625 0 L 1.359375 0 L 1.359375 -12.90625 L 10.859375 -12.90625 L 10.859375 -10.625 Z M 4 -10.625 "/></g></g></g><g fill="#28ae00" fill-opacity="1"><g transform="translate(26.340925, 47.745804)"><g><path d="M 6.796875 -10.90625 C 5.796875 -10.90625 5.003906 -10.515625 4.421875 -9.734375 C 3.835938 -8.960938 3.546875 -7.859375 3.546875 -6.421875 C 3.546875 -5.066406 3.820312 -3.988281 4.375 -3.1875 C 4.925781 -2.394531 5.710938 -2 6.734375 -2 C 7.492188 -2 8.117188 -2.203125 8.609375 -2.609375 C 9.097656 -3.023438 9.425781 -3.628906 9.59375 -4.421875 L 12.296875 -4.421875 C 11.992188 -2.890625 11.351562 -1.710938 10.375 -0.890625 C 9.394531 -0.0664062 8.164062 0.34375 6.6875 0.34375 C 5.488281 0.34375 4.445312 0.0703125 3.5625 -0.46875 C 2.675781 -1.019531 1.992188 -1.800781 1.515625 -2.8125 C 1.035156 -3.832031 0.796875 -5.039062 0.796875 -6.4375 C 0.796875 -7.820312 1.039062 -9.023438 1.53125 -10.046875 C 2.03125 -11.078125 2.726562 -11.867188 3.625 -12.421875 C 4.53125 -12.972656 5.566406 -13.25 6.734375 -13.25 C 7.753906 -13.25 8.671875 -13.050781 9.484375 -12.65625 C 10.296875 -12.257812 10.945312 -11.710938 11.4375 -11.015625 C 11.925781 -10.328125 12.210938 -9.546875 12.296875 -8.671875 L 9.59375 -8.671875 C 9.25 -10.160156 8.316406 -10.90625 6.796875 -10.90625 Z M 6.796875 -10.90625 "/></g></g></g><g fill="#28ae00" fill-opacity="1"><g transform="translate(39.310601, 47.745804)"><g><path d="M 9.234375 -3.921875 L 9.234375 -12.90625 L 11.75 -12.90625 L 11.75 0 L 9.0625 0 L 3.796875 -9.203125 L 3.75 -9.203125 L 3.75 0 L 1.234375 0 L 1.234375 -12.90625 L 4.078125 -12.90625 L 9.203125 -3.921875 Z M 9.234375 -3.921875 "/></g></g></g><g fill="#28ae00" fill-opacity="1"><g transform="translate(52.280277, 47.745804)"><g><path d="M 6.984375 0.34375 C 5.785156 0.34375 4.71875 0.0859375 3.78125 -0.421875 C 2.851562 -0.929688 2.125 -1.691406 1.59375 -2.703125 C 1.0625 -3.722656 0.796875 -4.972656 0.796875 -6.453125 C 0.796875 -7.898438 1.054688 -9.132812 1.578125 -10.15625 C 2.109375 -11.1875 2.835938 -11.957031 3.765625 -12.46875 C 4.703125 -12.988281 5.773438 -13.25 6.984375 -13.25 C 8.191406 -13.25 9.265625 -12.984375 10.203125 -12.453125 C 11.140625 -11.921875 11.867188 -11.144531 12.390625 -10.125 C 12.921875 -9.113281 13.1875 -7.890625 13.1875 -6.453125 C 13.1875 -4.992188 12.921875 -3.75 12.390625 -2.71875 C 11.859375 -1.695312 11.117188 -0.929688 10.171875 -0.421875 C 9.234375 0.0859375 8.171875 0.34375 6.984375 0.34375 Z M 10.5 -6.453125 C 10.5 -7.890625 10.175781 -9 9.53125 -9.78125 C 8.894531 -10.5625 8.039062 -10.953125 6.96875 -10.953125 C 5.925781 -10.953125 5.082031 -10.5625 4.4375 -9.78125 C 3.800781 -9 3.484375 -7.890625 3.484375 -6.453125 C 3.484375 -5.015625 3.800781 -3.898438 4.4375 -3.109375 C 5.070312 -2.328125 5.921875 -1.9375 6.984375 -1.9375 C 8.054688 -1.9375 8.910156 -2.328125 9.546875 -3.109375 C 10.179688 -3.898438 10.5 -5.015625 10.5 -6.453125 Z M 10.5 -6.453125 "/></g></g></g><g fill="#28ae00" fill-opacity="1"><g transform="translate(66.255904, 47.745804)"><g><path d="M 10.46875 -2.328125 L 10.46875 0 L 1.359375 0 L 1.359375 -12.90625 L 4.0625 -12.90625 L 4.0625 -2.328125 Z M 10.46875 -2.328125 "/></g></g></g><g fill="#28ae00" fill-opacity="1"><g transform="translate(77.231623, 47.745804)"><g><path d="M 6.984375 0.34375 C 5.785156 0.34375 4.71875 0.0859375 3.78125 -0.421875 C 2.851562 -0.929688 2.125 -1.691406 1.59375 -2.703125 C 1.0625 -3.722656 0.796875 -4.972656 0.796875 -6.453125 C 0.796875 -7.898438 1.054688 -9.132812 1.578125 -10.15625 C 2.109375 -11.1875 2.835938 -11.957031 3.765625 -12.46875 C 4.703125 -12.988281 5.773438 -13.25 6.984375 -13.25 C 8.191406 -13.25 9.265625 -12.984375 10.203125 -12.453125 C 11.140625 -11.921875 11.867188 -11.144531 12.390625 -10.125 C 12.921875 -9.113281 13.1875 -7.890625 13.1875 -6.453125 C 13.1875 -4.992188 12.921875 -3.75 12.390625 -2.71875 C 11.859375 -1.695312 11.117188 -0.929688 10.171875 -0.421875 C 9.234375 0.0859375 8.171875 0.34375 6.984375 0.34375 Z M 10.5 -6.453125 C 10.5 -7.890625 10.175781 -9 9.53125 -9.78125 C 8.894531 -10.5625 8.039062 -10.953125 6.96875 -10.953125 C 5.925781 -10.953125 5.082031 -10.5625 4.4375 -9.78125 C 3.800781 -9 3.484375 -7.890625 3.484375 -6.453125 C 3.484375 -5.015625 3.800781 -3.898438 4.4375 -3.109375 C 5.070312 -2.328125 5.921875 -1.9375 6.984375 -1.9375 C 8.054688 -1.9375 8.910156 -2.328125 9.546875 -3.109375 C 10.179688 -3.898438 10.5 -5.015625 10.5 -6.453125 Z M 5.9375 -14.1875 L 7.625 -16.8125 L 10.390625 -16.8125 L 7.75 -14.1875 Z M 5.9375 -14.1875 "/></g></g></g><g fill="#28ae00" fill-opacity="1"><g transform="translate(91.20725, 47.745804)"><g><path d="M 12.75 -8.890625 L 10.0625 -8.890625 C 10.007812 -9.222656 9.851562 -9.554688 9.59375 -9.890625 C 9.332031 -10.222656 9 -10.492188 8.59375 -10.703125 C 8.1875 -10.910156 7.734375 -11.015625 7.234375 -11.015625 C 6.097656 -11.015625 5.195312 -10.609375 4.53125 -9.796875 C 3.875 -8.992188 3.546875 -7.851562 3.546875 -6.375 C 3.546875 -4.9375 3.867188 -3.835938 4.515625 -3.078125 C 5.160156 -2.316406 6.082031 -1.9375 7.28125 -1.9375 C 8.019531 -1.9375 8.679688 -2.179688 9.265625 -2.671875 C 9.847656 -3.160156 10.234375 -3.863281 10.421875 -4.78125 L 7.421875 -4.78125 L 7.421875 -6.953125 L 12.8125 -6.953125 L 12.8125 0 L 11.015625 0 L 10.75 -1.609375 C 10.15625 -0.890625 9.535156 -0.382812 8.890625 -0.09375 C 8.253906 0.195312 7.535156 0.34375 6.734375 0.34375 C 5.597656 0.34375 4.578125 0.0703125 3.671875 -0.46875 C 2.773438 -1.019531 2.070312 -1.800781 1.5625 -2.8125 C 1.050781 -3.832031 0.796875 -5.023438 0.796875 -6.390625 C 0.796875 -7.722656 1.039062 -8.90625 1.53125 -9.9375 C 2.03125 -10.976562 2.753906 -11.789062 3.703125 -12.375 C 4.660156 -12.957031 5.796875 -13.25 7.109375 -13.25 C 8.148438 -13.25 9.082031 -13.0625 9.90625 -12.6875 C 10.726562 -12.3125 11.382812 -11.796875 11.875 -11.140625 C 12.375 -10.484375 12.664062 -9.734375 12.75 -8.890625 Z M 12.75 -8.890625 "/></g></g></g><g fill="#28ae00" fill-opacity="1"><g transform="translate(105.182878, 47.745804)"><g><path d="M 1.15625 0 L 1.15625 -12.90625 L 3.84375 -12.90625 L 3.84375 0 Z M 1.15625 0 "/></g></g></g><g fill="#28ae00" fill-opacity="1"><g transform="translate(110.176743, 47.745804)"><g><path d="M 6.796875 -10.90625 C 5.796875 -10.90625 5.003906 -10.515625 4.421875 -9.734375 C 3.835938 -8.960938 3.546875 -7.859375 3.546875 -6.421875 C 3.546875 -5.066406 3.820312 -3.988281 4.375 -3.1875 C 4.925781 -2.394531 5.710938 -2 6.734375 -2 C 7.492188 -2 8.117188 -2.203125 8.609375 -2.609375 C 9.097656 -3.023438 9.425781 -3.628906 9.59375 -4.421875 L 12.296875 -4.421875 C 11.992188 -2.890625 11.351562 -1.710938 10.375 -0.890625 C 9.394531 -0.0664062 8.164062 0.34375 6.6875 0.34375 C 5.488281 0.34375 4.445312 0.0703125 3.5625 -0.46875 C 2.675781 -1.019531 1.992188 -1.800781 1.515625 -2.8125 C 1.035156 -3.832031 0.796875 -5.039062 0.796875 -6.4375 C 0.796875 -7.820312 1.039062 -9.023438 1.53125 -10.046875 C 2.03125 -11.078125 2.726562 -11.867188 3.625 -12.421875 C 4.53125 -12.972656 5.566406 -13.25 6.734375 -13.25 C 7.753906 -13.25 8.671875 -13.050781 9.484375 -12.65625 C 10.296875 -12.257812 10.945312 -11.710938 11.4375 -11.015625 C 11.925781 -10.328125 12.210938 -9.546875 12.296875 -8.671875 L 9.59375 -8.671875 C 9.25 -10.160156 8.316406 -10.90625 6.796875 -10.90625 Z M 6.796875 -10.90625 "/></g></g></g><g fill="#28ae00" fill-opacity="1"><g transform="translate(123.146419, 47.745804)"><g><path d="M 9.6875 0 L 8.859375 -2.65625 L 4.09375 -2.65625 L 3.203125 0 L 0.359375 0 L 4.953125 -12.90625 L 8.0625 -12.90625 L 12.609375 0 Z M 8.109375 -4.890625 L 6.5 -9.984375 L 6.46875 -9.984375 L 4.8125 -4.890625 Z M 8.109375 -4.890625 "/></g></g></g><g fill="#28ae00" fill-opacity="1"><g transform="translate(136.116095, 47.745804)"><g/></g></g><g fill="#28ae00" fill-opacity="1"><g transform="translate(141.10996, 47.745804)"><g><path d="M 1.15625 0 L 1.15625 -12.90625 L 3.84375 -12.90625 L 3.84375 0 Z M 1.15625 0 "/></g></g></g><g fill="#28ae00" fill-opacity="1"><g transform="translate(146.103825, 47.745804)"><g><path d="M 9.234375 -3.921875 L 9.234375 -12.90625 L 11.75 -12.90625 L 11.75 0 L 9.0625 0 L 3.796875 -9.203125 L 3.75 -9.203125 L 3.75 0 L 1.234375 0 L 1.234375 -12.90625 L 4.078125 -12.90625 L 9.203125 -3.921875 Z M 9.234375 -3.921875 "/></g></g></g><g fill="#28ae00" fill-opacity="1"><g transform="translate(159.073501, 47.745804)"><g><path d="M 12.3125 -6.75 C 12.3125 -5.351562 12.085938 -4.144531 11.640625 -3.125 C 11.203125 -2.101562 10.582031 -1.328125 9.78125 -0.796875 C 8.988281 -0.265625 8.078125 0 7.046875 0 L 1.359375 0 L 1.359375 -12.90625 L 7.15625 -12.90625 C 8.289062 -12.90625 9.242188 -12.632812 10.015625 -12.09375 C 10.785156 -11.5625 11.359375 -10.832031 11.734375 -9.90625 C 12.117188 -8.988281 12.3125 -7.9375 12.3125 -6.75 Z M 9.5625 -6.578125 C 9.5625 -9.304688 8.609375 -10.671875 6.703125 -10.671875 L 4 -10.671875 L 4 -2.234375 L 6.6875 -2.234375 C 7.570312 -2.234375 8.269531 -2.617188 8.78125 -3.390625 C 9.300781 -4.171875 9.5625 -5.234375 9.5625 -6.578125 Z M 9.5625 -6.578125 "/></g></g></g><g fill="#28ae00" fill-opacity="1"><g transform="translate(172.043168, 47.745804)"><g><path d="M 6.359375 -1.9375 C 8.085938 -1.9375 8.953125 -2.753906 8.953125 -4.390625 L 8.953125 -12.90625 L 11.703125 -12.90625 L 11.703125 -4.421875 C 11.703125 -2.890625 11.25 -1.710938 10.34375 -0.890625 C 9.445312 -0.0664062 8.128906 0.34375 6.390625 0.34375 C 4.796875 0.34375 3.546875 -0.0546875 2.640625 -0.859375 C 1.742188 -1.660156 1.296875 -2.84375 1.296875 -4.40625 L 1.296875 -12.90625 L 4.046875 -12.90625 L 4.046875 -4.453125 C 4.046875 -3.691406 4.25 -3.082031 4.65625 -2.625 C 5.070312 -2.164062 5.640625 -1.9375 6.359375 -1.9375 Z M 6.359375 -1.9375 "/></g></g></g><g fill="#28ae00" fill-opacity="1"><g transform="translate(185.012836, 47.745804)"><g><path d="M 5.65625 -11.015625 C 5 -11.015625 4.457031 -10.875 4.03125 -10.59375 C 3.613281 -10.3125 3.40625 -9.9375 3.40625 -9.46875 C 3.40625 -9.125 3.503906 -8.835938 3.703125 -8.609375 C 3.898438 -8.390625 4.3125 -8.207031 4.9375 -8.0625 L 7.984375 -7.328125 C 9.222656 -7.023438 10.082031 -6.59375 10.5625 -6.03125 C 11.050781 -5.46875 11.296875 -4.75 11.296875 -3.875 C 11.296875 -2.957031 11.070312 -2.179688 10.625 -1.546875 C 10.175781 -0.910156 9.566406 -0.4375 8.796875 -0.125 C 8.035156 0.1875 7.171875 0.34375 6.203125 0.34375 C 4.492188 0.34375 3.160156 -0.015625 2.203125 -0.734375 C 1.242188 -1.453125 0.742188 -2.53125 0.703125 -3.96875 L 3.28125 -3.96875 C 3.3125 -3.3125 3.554688 -2.800781 4.015625 -2.4375 C 4.484375 -2.070312 5.148438 -1.890625 6.015625 -1.890625 C 6.890625 -1.890625 7.554688 -2.023438 8.015625 -2.296875 C 8.484375 -2.578125 8.71875 -3 8.71875 -3.5625 C 8.71875 -3.914062 8.59375 -4.191406 8.34375 -4.390625 C 8.101562 -4.597656 7.691406 -4.785156 7.109375 -4.953125 C 6.535156 -5.117188 5.578125 -5.351562 4.234375 -5.65625 C 3.066406 -5.925781 2.21875 -6.347656 1.6875 -6.921875 C 1.15625 -7.492188 0.890625 -8.273438 0.890625 -9.265625 C 0.890625 -10.035156 1.070312 -10.71875 1.4375 -11.3125 C 1.8125 -11.914062 2.367188 -12.390625 3.109375 -12.734375 C 3.847656 -13.078125 4.765625 -13.25 5.859375 -13.25 C 6.847656 -13.25 7.71875 -13.078125 8.46875 -12.734375 C 9.21875 -12.390625 9.800781 -11.898438 10.21875 -11.265625 C 10.644531 -10.640625 10.867188 -9.910156 10.890625 -9.078125 L 8.296875 -9.078125 C 8.179688 -10.367188 7.300781 -11.015625 5.65625 -11.015625 Z M 5.65625 -11.015625 "/></g></g></g><g fill="#28ae00" fill-opacity="1"><g transform="translate(196.994514, 47.745804)"><g><path d="M 6.84375 -10.625 L 6.84375 0 L 4.15625 0 L 4.15625 -10.625 L 0.25 -10.625 L 0.25 -12.90625 L 10.75 -12.90625 L 10.75 -10.625 Z M 6.84375 -10.625 "/></g></g></g><g fill="#28ae00" fill-opacity="1"><g transform="translate(207.970233, 47.745804)"><g><path d="M 11.953125 -9.25 C 11.953125 -8.519531 11.773438 -7.878906 11.421875 -7.328125 C 11.078125 -6.773438 10.585938 -6.394531 9.953125 -6.1875 L 10.390625 -5.96875 C 10.878906 -5.695312 11.203125 -5.320312 11.359375 -4.84375 C 11.515625 -4.363281 11.59375 -3.765625 11.59375 -3.046875 L 11.59375 -1.84375 C 11.59375 -0.9375 11.785156 -0.4375 12.171875 -0.34375 L 12.171875 0 L 9.1875 0 C 9.113281 -0.21875 9.046875 -0.5 8.984375 -0.84375 C 8.929688 -1.1875 8.90625 -1.515625 8.90625 -1.828125 L 8.890625 -3.234375 C 8.890625 -3.785156 8.789062 -4.1875 8.59375 -4.4375 C 8.40625 -4.695312 8.164062 -4.863281 7.875 -4.9375 C 7.59375 -5.007812 7.226562 -5.046875 6.78125 -5.046875 L 4 -5.046875 L 4 0 L 1.359375 0 L 1.359375 -12.90625 L 8.03125 -12.90625 C 8.832031 -12.90625 9.53125 -12.734375 10.125 -12.390625 C 10.71875 -12.054688 11.171875 -11.613281 11.484375 -11.0625 C 11.796875 -10.507812 11.953125 -9.90625 11.953125 -9.25 Z M 9.25 -8.984375 C 9.25 -9.492188 9.082031 -9.898438 8.75 -10.203125 C 8.425781 -10.515625 7.988281 -10.671875 7.4375 -10.671875 L 4 -10.671875 L 4 -7.21875 L 7.234375 -7.21875 C 7.910156 -7.21875 8.414062 -7.351562 8.75 -7.625 C 9.082031 -7.894531 9.25 -8.347656 9.25 -8.984375 Z M 9.25 -8.984375 "/></g></g></g><g fill="#28ae00" fill-opacity="1"><g transform="translate(220.939918, 47.745804)"><g><path d="M 1.15625 0 L 1.15625 -12.90625 L 3.84375 -12.90625 L 3.84375 0 Z M 1.15625 0 "/></g></g></g><g fill="#28ae00" fill-opacity="1"><g transform="translate(225.933792, 47.745804)"><g><path d="M 9.6875 0 L 8.859375 -2.65625 L 4.09375 -2.65625 L 3.203125 0 L 0.359375 0 L 4.953125 -12.90625 L 8.0625 -12.90625 L 12.609375 0 Z M 8.109375 -4.890625 L 6.5 -9.984375 L 6.46875 -9.984375 L 4.8125 -4.890625 Z M 8.109375 -4.890625 "/></g></g></g><g fill="#28ae00" fill-opacity="1"><g transform="translate(238.903459, 47.745804)"><g><path d="M 10.46875 -2.328125 L 10.46875 0 L 1.359375 0 L 1.359375 -12.90625 L 4.0625 -12.90625 L 4.0625 -2.328125 Z M 10.46875 -2.328125 "/></g></g></g><g fill="#545454" fill-opacity="1"><g transform="translate(4.743729, 67.801492)"><g><path d="M 10.578125 -8.46875 C 10.578125 -7.800781 10.445312 -7.25 10.1875 -6.8125 C 9.9375 -6.382812 9.53125 -6.007812 8.96875 -5.6875 C 9.332031 -5.550781 9.609375 -5.390625 9.796875 -5.203125 C 9.984375 -5.023438 10.117188 -4.769531 10.203125 -4.4375 C 10.296875 -4.113281 10.359375 -3.613281 10.390625 -2.9375 L 10.46875 -1.0625 C 10.476562 -0.71875 10.664062 -0.453125 11.03125 -0.265625 L 11.03125 0 L 9.109375 0 C 9.046875 -0.238281 8.984375 -0.617188 8.921875 -1.140625 C 8.867188 -1.671875 8.84375 -2.289062 8.84375 -3 C 8.84375 -3.707031 8.664062 -4.210938 8.3125 -4.515625 C 7.957031 -4.816406 7.460938 -4.96875 6.828125 -4.96875 L 2.984375 -4.96875 L 2.984375 0 L 1.421875 0 L 1.421875 -11.578125 L 6.765625 -11.578125 C 7.960938 -11.578125 8.894531 -11.316406 9.5625 -10.796875 C 10.238281 -10.273438 10.578125 -9.5 10.578125 -8.46875 Z M 8.96875 -8.296875 C 8.96875 -9.585938 8.300781 -10.234375 6.96875 -10.234375 L 2.984375 -10.234375 L 2.984375 -6.3125 L 6.671875 -6.3125 C 8.203125 -6.3125 8.96875 -6.972656 8.96875 -8.296875 Z M 8.96875 -8.296875 "/></g></g></g><g fill="#545454" fill-opacity="1"><g transform="translate(16.387926, 67.801492)"><g><path d="M 4.609375 -0.984375 C 4.972656 -0.984375 5.316406 -1.0625 5.640625 -1.21875 C 5.960938 -1.375 6.222656 -1.578125 6.421875 -1.828125 C 6.628906 -2.085938 6.75 -2.359375 6.78125 -2.640625 L 8.203125 -2.640625 C 8.003906 -1.742188 7.59375 -1.039062 6.96875 -0.53125 C 6.34375 -0.0195312 5.519531 0.234375 4.5 0.234375 C 3.675781 0.234375 2.972656 0.0507812 2.390625 -0.3125 C 1.816406 -0.675781 1.378906 -1.175781 1.078125 -1.8125 C 0.785156 -2.457031 0.640625 -3.1875 0.640625 -4 C 0.640625 -5.425781 0.988281 -6.5625 1.6875 -7.40625 C 2.394531 -8.25 3.394531 -8.671875 4.6875 -8.671875 C 5.851562 -8.671875 6.75 -8.238281 7.375 -7.375 C 8.007812 -6.519531 8.328125 -5.3125 8.328125 -3.75 L 2.15625 -3.75 C 2.15625 -2.851562 2.363281 -2.164062 2.78125 -1.6875 C 3.195312 -1.21875 3.804688 -0.984375 4.609375 -0.984375 Z M 4.5 -7.40625 C 4.09375 -7.40625 3.710938 -7.289062 3.359375 -7.0625 C 3.003906 -6.832031 2.710938 -6.523438 2.484375 -6.140625 C 2.265625 -5.753906 2.15625 -5.335938 2.15625 -4.890625 L 6.859375 -4.890625 C 6.722656 -6.566406 5.9375 -7.40625 4.5 -7.40625 Z M 4.5 -7.40625 "/></g></g></g><g fill="#545454" fill-opacity="1"><g transform="translate(25.354924, 67.801492)"><g><path d="M 8.046875 -0.515625 C 8.046875 0.929688 7.707031 1.96875 7.03125 2.59375 C 6.363281 3.226562 5.390625 3.546875 4.109375 3.546875 C 3.171875 3.546875 2.421875 3.320312 1.859375 2.875 C 1.296875 2.425781 0.976562 1.8125 0.90625 1.03125 L 2.328125 1.03125 C 2.390625 1.457031 2.582031 1.785156 2.90625 2.015625 C 3.238281 2.253906 3.679688 2.375 4.234375 2.375 C 5.035156 2.375 5.632812 2.15625 6.03125 1.71875 C 6.425781 1.289062 6.625 0.597656 6.625 -0.359375 L 6.625 -0.953125 C 6.164062 -0.160156 5.394531 0.234375 4.3125 0.234375 C 3.519531 0.234375 2.847656 0.03125 2.296875 -0.375 C 1.753906 -0.789062 1.34375 -1.351562 1.0625 -2.0625 C 0.78125 -2.78125 0.640625 -3.582031 0.640625 -4.46875 C 0.640625 -5.28125 0.785156 -6.003906 1.078125 -6.640625 C 1.367188 -7.285156 1.785156 -7.785156 2.328125 -8.140625 C 2.867188 -8.492188 3.476562 -8.671875 4.15625 -8.671875 C 5.238281 -8.671875 6.085938 -8.175781 6.703125 -7.1875 L 6.703125 -8.4375 L 8.046875 -8.4375 Z M 6.6875 -3.8125 C 6.6875 -5.019531 6.5 -5.921875 6.125 -6.515625 C 5.75 -7.109375 5.175781 -7.40625 4.40625 -7.40625 C 3.664062 -7.40625 3.097656 -7.15625 2.703125 -6.65625 C 2.304688 -6.15625 2.109375 -5.359375 2.109375 -4.265625 C 2.109375 -3.234375 2.304688 -2.425781 2.703125 -1.84375 C 3.109375 -1.269531 3.664062 -0.984375 4.375 -0.984375 C 5.050781 -0.984375 5.601562 -1.234375 6.03125 -1.734375 C 6.46875 -2.234375 6.6875 -2.925781 6.6875 -3.8125 Z M 6.6875 -3.8125 "/></g></g></g><g fill="#545454" fill-opacity="1"><g transform="translate(34.321922, 67.801492)"><g><path d="M 1.078125 -9.96875 L 1.078125 -11.578125 L 2.5 -11.578125 L 2.5 -9.96875 Z M 1.078125 0 L 1.078125 -8.4375 L 2.5 -8.4375 L 2.5 0 Z M 1.078125 0 "/></g></g></g><g fill="#545454" fill-opacity="1"><g transform="translate(37.902267, 67.801492)"><g><path d="M 4.5 0.21875 C 3.675781 0.21875 2.96875 0.0195312 2.375 -0.375 C 1.78125 -0.769531 1.328125 -1.300781 1.015625 -1.96875 C 0.710938 -2.644531 0.5625 -3.394531 0.5625 -4.21875 C 0.5625 -5.070312 0.71875 -5.832031 1.03125 -6.5 C 1.351562 -7.175781 1.8125 -7.707031 2.40625 -8.09375 C 3 -8.476562 3.691406 -8.671875 4.484375 -8.671875 C 5.296875 -8.671875 6 -8.472656 6.59375 -8.078125 C 7.1875 -7.679688 7.632812 -7.144531 7.9375 -6.46875 C 8.25 -5.789062 8.40625 -5.039062 8.40625 -4.21875 C 8.40625 -3.394531 8.25 -2.640625 7.9375 -1.953125 C 7.625 -1.273438 7.171875 -0.742188 6.578125 -0.359375 C 5.992188 0.0234375 5.300781 0.21875 4.5 0.21875 Z M 6.9375 -4.171875 C 6.9375 -5.128906 6.722656 -5.914062 6.296875 -6.53125 C 5.878906 -7.144531 5.269531 -7.453125 4.46875 -7.453125 C 3.695312 -7.453125 3.097656 -7.148438 2.671875 -6.546875 C 2.242188 -5.941406 2.03125 -5.164062 2.03125 -4.21875 C 2.03125 -3.300781 2.242188 -2.535156 2.671875 -1.921875 C 3.097656 -1.304688 3.703125 -1 4.484375 -1 C 5.273438 -1 5.878906 -1.304688 6.296875 -1.921875 C 6.722656 -2.535156 6.9375 -3.285156 6.9375 -4.171875 Z M 6.9375 -4.171875 "/></g></g></g><g fill="#545454" fill-opacity="1"><g transform="translate(46.869265, 67.801492)"><g><path d="M 6.5 -5.171875 C 6.5 -5.953125 6.359375 -6.519531 6.078125 -6.875 C 5.804688 -7.226562 5.347656 -7.40625 4.703125 -7.40625 C 4.035156 -7.40625 3.492188 -7.15625 3.078125 -6.65625 C 2.671875 -6.15625 2.46875 -5.492188 2.46875 -4.671875 L 2.46875 0 L 1.046875 0 L 1.046875 -8.4375 L 2.390625 -8.4375 L 2.390625 -7.234375 L 2.421875 -7.234375 C 2.785156 -7.742188 3.175781 -8.109375 3.59375 -8.328125 C 4.007812 -8.554688 4.46875 -8.671875 4.96875 -8.671875 C 5.90625 -8.671875 6.628906 -8.421875 7.140625 -7.921875 C 7.660156 -7.421875 7.921875 -6.71875 7.921875 -5.8125 L 7.921875 0 L 6.5 0 Z M 6.5 -5.171875 "/></g></g></g><g fill="#545454" fill-opacity="1"><g transform="translate(55.836263, 67.801492)"><g><path d="M 8.078125 -0.96875 C 8.222656 -0.96875 8.378906 -0.988281 8.546875 -1.03125 L 8.546875 0 C 8.222656 0.101562 7.957031 0.15625 7.75 0.15625 C 7.289062 0.15625 6.9375 0.0546875 6.6875 -0.140625 C 6.4375 -0.335938 6.296875 -0.664062 6.265625 -1.125 C 5.460938 -0.21875 4.453125 0.234375 3.234375 0.234375 C 2.453125 0.234375 1.8125 0.0078125 1.3125 -0.4375 C 0.820312 -0.882812 0.578125 -1.46875 0.578125 -2.1875 C 0.578125 -2.925781 0.789062 -3.523438 1.21875 -3.984375 C 1.65625 -4.441406 2.289062 -4.726562 3.125 -4.84375 L 5.484375 -5.125 C 5.742188 -5.15625 5.929688 -5.242188 6.046875 -5.390625 C 6.160156 -5.546875 6.21875 -5.785156 6.21875 -6.109375 C 6.21875 -7.035156 5.554688 -7.5 4.234375 -7.5 C 3.660156 -7.5 3.210938 -7.367188 2.890625 -7.109375 C 2.578125 -6.847656 2.382812 -6.4375 2.3125 -5.875 L 1 -5.875 C 1.019531 -6.769531 1.3125 -7.457031 1.875 -7.9375 C 2.445312 -8.425781 3.289062 -8.671875 4.40625 -8.671875 C 5.351562 -8.671875 6.125 -8.472656 6.71875 -8.078125 C 7.3125 -7.679688 7.609375 -7.09375 7.609375 -6.3125 L 7.609375 -1.4375 C 7.609375 -1.289062 7.644531 -1.175781 7.71875 -1.09375 C 7.800781 -1.007812 7.921875 -0.96875 8.078125 -0.96875 Z M 6.1875 -2.921875 L 6.1875 -4.3125 C 6.0625 -4.195312 5.851562 -4.109375 5.5625 -4.046875 C 5.28125 -3.984375 4.640625 -3.878906 3.640625 -3.734375 C 3.128906 -3.660156 2.734375 -3.515625 2.453125 -3.296875 C 2.179688 -3.085938 2.046875 -2.785156 2.046875 -2.390625 C 2.046875 -1.421875 2.554688 -0.9375 3.578125 -0.9375 C 4.015625 -0.9375 4.4375 -1.023438 4.84375 -1.203125 C 5.25 -1.378906 5.570312 -1.617188 5.8125 -1.921875 C 6.0625 -2.234375 6.1875 -2.566406 6.1875 -2.921875 Z M 6.1875 -2.921875 "/></g></g></g><g fill="#545454" fill-opacity="1"><g transform="translate(64.803261, 67.801492)"><g><path d="M 1.078125 0 L 1.078125 -11.578125 L 2.5 -11.578125 L 2.5 0 Z M 1.078125 0 "/></g></g></g><g fill="#545454" fill-opacity="1"><g transform="translate(68.383606, 67.801492)"><g/></g></g><g fill="#545454" fill-opacity="1"><g transform="translate(72.867105, 67.801492)"><g><path d="M 10.578125 -8.46875 C 10.578125 -7.800781 10.445312 -7.25 10.1875 -6.8125 C 9.9375 -6.382812 9.53125 -6.007812 8.96875 -5.6875 C 9.332031 -5.550781 9.609375 -5.390625 9.796875 -5.203125 C 9.984375 -5.023438 10.117188 -4.769531 10.203125 -4.4375 C 10.296875 -4.113281 10.359375 -3.613281 10.390625 -2.9375 L 10.46875 -1.0625 C 10.476562 -0.71875 10.664062 -0.453125 11.03125 -0.265625 L 11.03125 0 L 9.109375 0 C 9.046875 -0.238281 8.984375 -0.617188 8.921875 -1.140625 C 8.867188 -1.671875 8.84375 -2.289062 8.84375 -3 C 8.84375 -3.707031 8.664062 -4.210938 8.3125 -4.515625 C 7.957031 -4.816406 7.460938 -4.96875 6.828125 -4.96875 L 2.984375 -4.96875 L 2.984375 0 L 1.421875 0 L 1.421875 -11.578125 L 6.765625 -11.578125 C 7.960938 -11.578125 8.894531 -11.316406 9.5625 -10.796875 C 10.238281 -10.273438 10.578125 -9.5 10.578125 -8.46875 Z M 8.96875 -8.296875 C 8.96875 -9.585938 8.300781 -10.234375 6.96875 -10.234375 L 2.984375 -10.234375 L 2.984375 -6.3125 L 6.671875 -6.3125 C 8.203125 -6.3125 8.96875 -6.972656 8.96875 -8.296875 Z M 8.96875 -8.296875 "/></g></g></g><g fill="#545454" fill-opacity="1"><g transform="translate(84.511302, 67.801492)"><g><path d="M 1.078125 -9.96875 L 1.078125 -11.578125 L 2.5 -11.578125 L 2.5 -9.96875 Z M 1.078125 0 L 1.078125 -8.4375 L 2.5 -8.4375 L 2.5 0 Z M 1.078125 0 "/></g></g></g><g fill="#545454" fill-opacity="1"><g transform="translate(88.091647, 67.801492)"><g><path d="M 7.203125 -6.03125 L 5.84375 -6.03125 C 5.84375 -6.488281 5.675781 -6.835938 5.34375 -7.078125 C 5.007812 -7.328125 4.523438 -7.453125 3.890625 -7.453125 C 3.367188 -7.453125 2.945312 -7.347656 2.625 -7.140625 C 2.3125 -6.929688 2.15625 -6.632812 2.15625 -6.25 C 2.15625 -5.96875 2.25 -5.75 2.4375 -5.59375 C 2.625 -5.4375 2.992188 -5.289062 3.546875 -5.15625 L 5.171875 -4.75 C 5.992188 -4.550781 6.582031 -4.28125 6.9375 -3.9375 C 7.300781 -3.59375 7.484375 -3.128906 7.484375 -2.546875 C 7.484375 -1.992188 7.34375 -1.503906 7.0625 -1.078125 C 6.78125 -0.660156 6.382812 -0.335938 5.875 -0.109375 C 5.363281 0.117188 4.78125 0.234375 4.125 0.234375 C 1.757812 0.234375 0.554688 -0.742188 0.515625 -2.703125 L 1.890625 -2.703125 C 1.921875 -2.097656 2.125 -1.660156 2.5 -1.390625 C 2.882812 -1.117188 3.421875 -0.984375 4.109375 -0.984375 C 4.703125 -0.984375 5.175781 -1.097656 5.53125 -1.328125 C 5.882812 -1.566406 6.0625 -1.894531 6.0625 -2.3125 C 6.0625 -2.570312 5.984375 -2.773438 5.828125 -2.921875 C 5.671875 -3.078125 5.484375 -3.191406 5.265625 -3.265625 C 5.046875 -3.347656 4.722656 -3.441406 4.296875 -3.546875 L 2.828125 -3.921875 C 2.191406 -4.066406 1.691406 -4.296875 1.328125 -4.609375 C 0.972656 -4.929688 0.796875 -5.390625 0.796875 -5.984375 C 0.796875 -6.804688 1.085938 -7.457031 1.671875 -7.9375 C 2.265625 -8.425781 3.050781 -8.671875 4.03125 -8.671875 C 5.019531 -8.671875 5.785156 -8.425781 6.328125 -7.9375 C 6.867188 -7.457031 7.160156 -6.820312 7.203125 -6.03125 Z M 7.203125 -6.03125 "/></g></g></g><g fill="#545454" fill-opacity="1"><g transform="translate(96.155491, 67.801492)"><g><path d="M 8.078125 -0.96875 C 8.222656 -0.96875 8.378906 -0.988281 8.546875 -1.03125 L 8.546875 0 C 8.222656 0.101562 7.957031 0.15625 7.75 0.15625 C 7.289062 0.15625 6.9375 0.0546875 6.6875 -0.140625 C 6.4375 -0.335938 6.296875 -0.664062 6.265625 -1.125 C 5.460938 -0.21875 4.453125 0.234375 3.234375 0.234375 C 2.453125 0.234375 1.8125 0.0078125 1.3125 -0.4375 C 0.820312 -0.882812 0.578125 -1.46875 0.578125 -2.1875 C 0.578125 -2.925781 0.789062 -3.523438 1.21875 -3.984375 C 1.65625 -4.441406 2.289062 -4.726562 3.125 -4.84375 L 5.484375 -5.125 C 5.742188 -5.15625 5.929688 -5.242188 6.046875 -5.390625 C 6.160156 -5.546875 6.21875 -5.785156 6.21875 -6.109375 C 6.21875 -7.035156 5.554688 -7.5 4.234375 -7.5 C 3.660156 -7.5 3.210938 -7.367188 2.890625 -7.109375 C 2.578125 -6.847656 2.382812 -6.4375 2.3125 -5.875 L 1 -5.875 C 1.019531 -6.769531 1.3125 -7.457031 1.875 -7.9375 C 2.445312 -8.425781 3.289062 -8.671875 4.40625 -8.671875 C 5.351562 -8.671875 6.125 -8.472656 6.71875 -8.078125 C 7.3125 -7.679688 7.609375 -7.09375 7.609375 -6.3125 L 7.609375 -1.4375 C 7.609375 -1.289062 7.644531 -1.175781 7.71875 -1.09375 C 7.800781 -1.007812 7.921875 -0.96875 8.078125 -0.96875 Z M 6.1875 -2.921875 L 6.1875 -4.3125 C 6.0625 -4.195312 5.851562 -4.109375 5.5625 -4.046875 C 5.28125 -3.984375 4.640625 -3.878906 3.640625 -3.734375 C 3.128906 -3.660156 2.734375 -3.515625 2.453125 -3.296875 C 2.179688 -3.085938 2.046875 -2.785156 2.046875 -2.390625 C 2.046875 -1.421875 2.554688 -0.9375 3.578125 -0.9375 C 4.015625 -0.9375 4.4375 -1.023438 4.84375 -1.203125 C 5.25 -1.378906 5.570312 -1.617188 5.8125 -1.921875 C 6.0625 -2.234375 6.1875 -2.566406 6.1875 -2.921875 Z M 6.1875 -2.921875 "/></g></g></g><g fill="#545454" fill-opacity="1"><g transform="translate(105.122489, 67.801492)"><g><path d="M 2.65625 -4.828125 L 2.65625 0 L 1.234375 0 L 1.234375 -8.4375 L 2.578125 -8.4375 L 2.578125 -7.03125 L 2.609375 -7.03125 C 2.910156 -7.5625 3.25 -7.96875 3.625 -8.25 C 4.007812 -8.53125 4.460938 -8.671875 4.984375 -8.671875 C 5.140625 -8.671875 5.265625 -8.65625 5.359375 -8.625 L 5.359375 -7.15625 L 4.8125 -7.15625 C 4.445312 -7.15625 4.101562 -7.070312 3.78125 -6.90625 C 3.457031 -6.738281 3.1875 -6.476562 2.96875 -6.125 C 2.757812 -5.78125 2.65625 -5.347656 2.65625 -4.828125 Z M 2.65625 -4.828125 "/></g></g></g><g fill="#545454" fill-opacity="1"><g transform="translate(110.493014, 67.801492)"><g><path d="M 8.078125 -0.96875 C 8.222656 -0.96875 8.378906 -0.988281 8.546875 -1.03125 L 8.546875 0 C 8.222656 0.101562 7.957031 0.15625 7.75 0.15625 C 7.289062 0.15625 6.9375 0.0546875 6.6875 -0.140625 C 6.4375 -0.335938 6.296875 -0.664062 6.265625 -1.125 C 5.460938 -0.21875 4.453125 0.234375 3.234375 0.234375 C 2.453125 0.234375 1.8125 0.0078125 1.3125 -0.4375 C 0.820312 -0.882812 0.578125 -1.46875 0.578125 -2.1875 C 0.578125 -2.925781 0.789062 -3.523438 1.21875 -3.984375 C 1.65625 -4.441406 2.289062 -4.726562 3.125 -4.84375 L 5.484375 -5.125 C 5.742188 -5.15625 5.929688 -5.242188 6.046875 -5.390625 C 6.160156 -5.546875 6.21875 -5.785156 6.21875 -6.109375 C 6.21875 -7.035156 5.554688 -7.5 4.234375 -7.5 C 3.660156 -7.5 3.210938 -7.367188 2.890625 -7.109375 C 2.578125 -6.847656 2.382812 -6.4375 2.3125 -5.875 L 1 -5.875 C 1.019531 -6.769531 1.3125 -7.457031 1.875 -7.9375 C 2.445312 -8.425781 3.289062 -8.671875 4.40625 -8.671875 C 5.351562 -8.671875 6.125 -8.472656 6.71875 -8.078125 C 7.3125 -7.679688 7.609375 -7.09375 7.609375 -6.3125 L 7.609375 -1.4375 C 7.609375 -1.289062 7.644531 -1.175781 7.71875 -1.09375 C 7.800781 -1.007812 7.921875 -0.96875 8.078125 -0.96875 Z M 6.1875 -2.921875 L 6.1875 -4.3125 C 6.0625 -4.195312 5.851562 -4.109375 5.5625 -4.046875 C 5.28125 -3.984375 4.640625 -3.878906 3.640625 -3.734375 C 3.128906 -3.660156 2.734375 -3.515625 2.453125 -3.296875 C 2.179688 -3.085938 2.046875 -2.785156 2.046875 -2.390625 C 2.046875 -1.421875 2.554688 -0.9375 3.578125 -0.9375 C 4.015625 -0.9375 4.4375 -1.023438 4.84375 -1.203125 C 5.25 -1.378906 5.570312 -1.617188 5.8125 -1.921875 C 6.0625 -2.234375 6.1875 -2.566406 6.1875 -2.921875 Z M 6.1875 -2.921875 "/></g></g></g><g fill="#545454" fill-opacity="1"><g transform="translate(119.460012, 67.801492)"><g><path d="M 1.078125 0 L 1.078125 -11.578125 L 2.5 -11.578125 L 2.5 0 Z M 1.078125 0 "/></g></g></g><g fill="#545454" fill-opacity="1"><g transform="translate(123.040357, 67.801492)"><g><path d="M 6.703125 0 L 6.703125 -1.15625 L 6.671875 -1.15625 C 6.191406 -0.226562 5.378906 0.234375 4.234375 0.234375 C 3.453125 0.234375 2.785156 0.0234375 2.234375 -0.390625 C 1.679688 -0.804688 1.265625 -1.367188 0.984375 -2.078125 C 0.703125 -2.785156 0.5625 -3.582031 0.5625 -4.46875 C 0.5625 -5.28125 0.707031 -6.003906 1 -6.640625 C 1.289062 -7.285156 1.703125 -7.785156 2.234375 -8.140625 C 2.765625 -8.492188 3.378906 -8.671875 4.078125 -8.671875 C 4.609375 -8.671875 5.070312 -8.5625 5.46875 -8.34375 C 5.875 -8.125 6.25 -7.753906 6.59375 -7.234375 L 6.625 -7.234375 L 6.625 -11.578125 L 8.046875 -11.578125 L 8.046875 0 Z M 4.3125 -0.984375 C 4.976562 -0.984375 5.523438 -1.234375 5.953125 -1.734375 C 6.390625 -2.234375 6.609375 -2.925781 6.609375 -3.8125 C 6.609375 -5.007812 6.421875 -5.90625 6.046875 -6.5 C 5.671875 -7.101562 5.097656 -7.40625 4.328125 -7.40625 C 2.796875 -7.40625 2.03125 -6.390625 2.03125 -4.359375 C 2.03125 -3.273438 2.226562 -2.441406 2.625 -1.859375 C 3.019531 -1.273438 3.582031 -0.984375 4.3125 -0.984375 Z M 4.3125 -0.984375 "/></g></g></g><g fill="#545454" fill-opacity="1"><g transform="translate(132.007355, 67.801492)"><g><path d="M 8.078125 -0.96875 C 8.222656 -0.96875 8.378906 -0.988281 8.546875 -1.03125 L 8.546875 0 C 8.222656 0.101562 7.957031 0.15625 7.75 0.15625 C 7.289062 0.15625 6.9375 0.0546875 6.6875 -0.140625 C 6.4375 -0.335938 6.296875 -0.664062 6.265625 -1.125 C 5.460938 -0.21875 4.453125 0.234375 3.234375 0.234375 C 2.453125 0.234375 1.8125 0.0078125 1.3125 -0.4375 C 0.820312 -0.882812 0.578125 -1.46875 0.578125 -2.1875 C 0.578125 -2.925781 0.789062 -3.523438 1.21875 -3.984375 C 1.65625 -4.441406 2.289062 -4.726562 3.125 -4.84375 L 5.484375 -5.125 C 5.742188 -5.15625 5.929688 -5.242188 6.046875 -5.390625 C 6.160156 -5.546875 6.21875 -5.785156 6.21875 -6.109375 C 6.21875 -7.035156 5.554688 -7.5 4.234375 -7.5 C 3.660156 -7.5 3.210938 -7.367188 2.890625 -7.109375 C 2.578125 -6.847656 2.382812 -6.4375 2.3125 -5.875 L 1 -5.875 C 1.019531 -6.769531 1.3125 -7.457031 1.875 -7.9375 C 2.445312 -8.425781 3.289062 -8.671875 4.40625 -8.671875 C 5.351562 -8.671875 6.125 -8.472656 6.71875 -8.078125 C 7.3125 -7.679688 7.609375 -7.09375 7.609375 -6.3125 L 7.609375 -1.4375 C 7.609375 -1.289062 7.644531 -1.175781 7.71875 -1.09375 C 7.800781 -1.007812 7.921875 -0.96875 8.078125 -0.96875 Z M 6.1875 -2.921875 L 6.1875 -4.3125 C 6.0625 -4.195312 5.851562 -4.109375 5.5625 -4.046875 C 5.28125 -3.984375 4.640625 -3.878906 3.640625 -3.734375 C 3.128906 -3.660156 2.734375 -3.515625 2.453125 -3.296875 C 2.179688 -3.085938 2.046875 -2.785156 2.046875 -2.390625 C 2.046875 -1.421875 2.554688 -0.9375 3.578125 -0.9375 C 4.015625 -0.9375 4.4375 -1.023438 4.84375 -1.203125 C 5.25 -1.378906 5.570312 -1.617188 5.8125 -1.921875 C 6.0625 -2.234375 6.1875 -2.566406 6.1875 -2.921875 Z M 6.1875 -2.921875 "/></g></g></g></svg>